<?xml version="1.0" standalone="no"?><!DOCTYPE svg PUBLIC "-//W3C//DTD SVG 1.1//EN" "http://www.w3.org/Graphics/SVG/1.1/DTD/svg11.dtd"><svg t="1583721459401" class="icon" viewBox="0 0 1024 1024" version="1.1" xmlns="http://www.w3.org/2000/svg" p-id="1164" xmlns:xlink="http://www.w3.org/1999/xlink" width="64" height="64"><defs><style type="text/css"></style></defs><path d="M511.69168682 90.63885528C279.01811814 90.63885528 90.63885528 279.12088918 90.63885528 511.79445789S279.01811814 932.84729025 511.69168682 932.84729025s420.95006131-188.4820339 420.95006132-421.15560342S744.05694236 90.63885528 511.69168682 90.63885528z m0.51385529 812.30207053h-0.51385528c-215.81912274 0.10277107-390.83815476-174.71071884-390.94092581-390.52984158v-0.41108423C120.5452189 296.18087726 295.35870881 121.16184524 511.07506131 120.95630313h0.51385446c52.31044418-0.10277107 104.00426285 10.27710077 152.10109617 30.72853208 144.90712546 61.14875181 238.94260071 203.07551743 238.83982964 360.31516479 0.20554211 215.71635169-174.60794778 390.7353837-390.32429947 390.94092581z" fill="#0DAAF6" p-id="1165"></path><path d="M443.55450644 768.72198536c-4.21361169 0-8.11891022-1.64433608-10.99649817-4.52192405-3.90529852-3.90529852-5.44686355-9.76324631-4.00806958-15.1073388l129.18316114-482.0988123c1.43879397-5.44686355 5.65240567-9.66047525 10.99649816-11.09926922 1.33602292-0.30831318 2.67204666-0.51385528 4.00806958-0.51385529 4.21361169 0 8.11891022 1.64433608 10.99649817 4.52192405 3.90529852 3.90529852 5.44686355 9.66047525 4.00806958 15.10733881L458.55907419 757.00608978c-1.43879397 5.44686355-5.65240567 9.66047525-10.99649816 11.09926923-1.33602292 0.41108423-2.67204666 0.61662635-4.00806959 0.61662635z m193.10672984-96.39920792c-4.11084064 0-8.01613916-1.64433608-10.89372712-4.52192487-2.87758794-2.87758794-4.52192487-6.78288648-4.52192487-10.89372711 0-4.00806958 1.64433608-8.01613916 4.52192487-10.89372712L760.70584619 511.07506131 625.76750916 376.34226556c-3.90529852-3.90529852-5.3440925-9.5577042-4.00806958-14.90179668 1.43879397-5.24132144 5.54963462-9.45493313 10.8937271-10.89372712 1.33602292-0.30831318 2.67204666-0.51385528 4.00806959-0.51385528 4.11084064 0 8.01613916 1.64433608 10.89372711 4.52192486l144.29049911 144.18772806 1.54156586 1.54156502c2.87758794 2.87758794 4.52192487 6.78288648 4.52192404 10.89372712 0 4.00806958-1.64433608 8.01613916-4.52192404 10.89372793l-1.54156586 1.54156504-144.29049911 144.18772806c-2.87758794 2.87758794-6.78288648 4.52192487-10.89372711 4.52192487z m-249.32247255 0c-4.11084064 0-8.01613916-1.64433608-10.89372711-4.52192487L232.15453751 523.61312451l-1.54156586-1.54156503c-2.87758794-2.87758794-4.52192487-6.78288648-4.52192404-10.89372794 0-4.00806958 1.64433608-8.01613916 4.52192404-10.89372711l1.54156586-1.54156503v-0.10277106l144.29049911-144.18772806c2.87758794-2.87758794 6.78288648-4.52192487 10.89372711-4.52192487 1.33602292 0 2.67204666 0.20554211 4.00806959 0.51385529 5.3440925 1.43879397 9.45493313 5.54963462 10.8937271 10.89372712 1.43879397 5.3440925-0.10277107 10.99649817-4.00806958 14.90179669L263.19138276 511.17783154 398.23249084 646.11616941c2.87758794 2.87758794 4.52192487 6.78288648 4.52192487 10.89372711s-1.64433608 8.01613916-4.52192487 10.89372711c-2.87758794 2.7748169-6.78288648 4.41915381-10.89372711 4.41915381z" fill="#0DAAF6" p-id="1166"></path></svg>