<?xml version="1.0" standalone="no"?><!DOCTYPE svg PUBLIC "-//W3C//DTD SVG 1.1//EN" "http://www.w3.org/Graphics/SVG/1.1/DTD/svg11.dtd"><svg t="1583721977860" class="icon" viewBox="0 0 1024 1024" version="1.1" xmlns="http://www.w3.org/2000/svg" p-id="1579" xmlns:xlink="http://www.w3.org/1999/xlink" width="64" height="64"><defs><style type="text/css"></style></defs><path d="M512 512m-421.875 0a421.875 421.875 0 1 0 843.75 0 421.875 421.875 0 1 0-843.75 0Z" fill="#517285" p-id="1580"></path><path d="M816.425 374.19453125c0-22.44375-6.2859375-26.3671875-27.8859375-26.3671875h-39.71953125c-12.6140625 0-25.9453125 2.7421875-25.9453125 18.83671875 0 16.55859375 14.91328125 18.92109375 25.9453125 18.92109375h29.9109375v214.3125h-29.9109375c-12.6140625 0-25.9453125 2.7421875-25.9453125 18.9 0 16.4953125 14.91328125 18.8578125 25.9453125 18.8578125h95.91328125c11.053125 0 25.96640625-2.3625 25.96640625-18.8578125 0-16.1578125-13.33125-18.9-25.9453125-18.9h-28.32890625v-225.703125z" fill="#FFFFFF" p-id="1581"></path><path d="M562.4140625 611.6890625c0 12.99375 2.7421875 25.9453125 18.83671875 25.9453125 16.1578125 0 18.92109375-12.9515625 18.92109375-25.9453125v-95.5546875l52.67109375-43.64296875c6.7078125-5.50546875 11.8125-9.028125 18.8578125-9.028125h11.03203125c9.0703125 0 18.0984375 0 22.78125 6.68671875 3.94453125 5.484375 3.94453125 10.209375 3.94453125 16.4953125 0 12.17109375 5.5265625 23.203125 19.2796875 23.203125 16.13671875 0 18.49921875-13.3734375 18.49921875-26.3671875 0-17.27578125-4.3453125-30.2484375-16.9171875-42.8625-10.23046875-10.23046875-22.38046875-14.934375-36.95625-14.934375h-30.290625c-11.8125 0-22.78125 7.4671875-33.4125 16.115625l-29.4890625 24.40546875V450.828125c0-12.571875-3.94453125-25.14375-18.92109375-25.14375-17.2546875 0-18.83671875 14.15390625-18.83671875 27.90703125v158.09765625zM542.73359375 451.671875c0-12.99375-2.7421875-25.9875-18.8578125-25.9875-16.1578125 0-18.9 12.99375-18.9 25.96640625v109.70859375L449.5203125 596.375a20.81953125 20.81953125 0 0 1-11.8125 3.52265625h-12.55078125c-9.04921875 0-18.8578125-2.3625-22.021875-7.86796875-3.1640625-5.484375-3.52265625-15.75703125-3.94453125-24.384375l-3.9234375-115.99453125c-0.421875-12.21328125-2.3625-25.9453125-18.49921875-25.9453125-17.296875 0-19.2796875 14.5546875-18.8578125 28.28671875l3.9234375 118.7578125c0.78046875 20.4609375 0.421875 36.59765625 17.3390625 51.15234375 12.55078125 10.5890625 24.36328125 13.753125 34.99453125 13.753125h27.90703125c10.209375 0 20.43984375-4.70390625 32.653125-12.571875l30.64921875-20.08125v6.2859375c0 12.97265625 2.7421875 26.3671875 18.8578125 26.3671875 20.08125 0 18.49921875-19.25859375 18.49921875-27.90703125V451.671875zM153.40625 549.96875c0 23.203125 4.3453125 34.59375 22.42265625 49.50703125l27.90703125 23.26640625c17.6765625 14.5125 26.72578125 14.91328125 48.74765625 14.91328125h59.7796875c12.571875 0 25.96640625-2.7421875 25.96640625-18.8578125 0-16.55859375-14.91328125-18.9-25.9453125-18.9h-66.4453125c-7.509375 0-14.9765625-3.94453125-21.66328125-9.45l-22.78125-19.2796875c-5.92734375-4.70390625-10.23046875-8.6484375-10.23046875-16.09453125v-46.80703125c0-7.4671875 4.303125-11.390625 10.23046875-16.13671875l22.78125-19.2796875c6.68671875-5.46328125 14.15390625-9.38671875 21.66328125-9.38671875h66.4453125c11.03203125 0 25.9453125-2.4046875 25.9453125-18.92109375 0-16.09453125-13.39453125-18.8578125-25.9453125-18.8578125H252.4625c-22.021875 0-31.07109375 0.421875-48.7265625 14.934375l-27.928125 23.203125c-18.07734375 14.9765625-22.42265625 26.3671875-22.42265625 49.5703125V549.96875z" fill="#FFFFFF" p-id="1582"></path></svg>