<?xml version="1.0" standalone="no"?><!DOCTYPE svg PUBLIC "-//W3C//DTD SVG 1.1//EN" "http://www.w3.org/Graphics/SVG/1.1/DTD/svg11.dtd"><svg t="1583722046269" class="icon" viewBox="0 0 1024 1024" version="1.1" xmlns="http://www.w3.org/2000/svg" p-id="1850" xmlns:xlink="http://www.w3.org/1999/xlink" width="64" height="64"><defs><style type="text/css"></style></defs><path d="M162.89 552.112c1.396 28.8 30.169 15.475 43.201 6.47 12.37-8.55 15.987-1.442 17.073-18.316 0.712-11.087 1.99-22.179 1.36-33.31-18.705-1.694-39.052 2.762-54.388 13.902-7.901 5.743-22.711 24.062-7.247 31.254" fill="#F6D2A2" p-id="1851"></path><path d="M162.89 552.112c4.187-1.562 8.625-2.665 11.466-6.452" fill="#C6B198" p-id="1852"></path><path d="M229.381 208.995C119.124 177.989 201.11 37.72 289.65 95.417l-60.268 113.578zM719.252 84.89c87.276-61.299 166.137 77.003 64.713 111.801l-64.713-111.8z" fill="#6AD7E5" p-id="1853"></path><path d="M738.024 906.578c22.168 13.715 62.687 55.192 29.435 75.303-31.955 29.257-49.836-32.114-77.883-40.615 12.08-16.406 27.387-31.36 48.448-34.688zM341.989 953.448c-26.02 4.027-40.664 27.5-62.355 39.422-20.441 12.19-28.26-3.9-30.1-7.168-3.203-1.46-2.935 1.36-7.881-3.618-18.948-29.905 19.743-51.765 39.89-66.619 28.063-5.674 45.649 18.655 60.446 37.983z" fill="#F6D2A2" p-id="1854"></path><path d="M233.982 170.255c-14.546-7.695-25.218-18.145-16.32-34.97 8.238-15.576 23.541-13.884 38.09-6.19l-21.77 41.16z m527-14.629c14.546-7.695 25.218-18.145 16.32-34.97-8.238-15.575-23.541-13.884-38.09-6.19l21.77 41.16z" p-id="1855"></path><path d="M861.113 548.454c-1.397 28.8-30.17 15.476-43.202 6.472-12.372-8.55-15.984-1.443-17.074-18.317-0.713-11.087-1.989-22.179-1.36-33.311 18.704-1.695 39.051 2.761 54.39 13.902 7.897 5.744 22.71 24.063 7.246 31.254" fill="#F6D2A2" p-id="1856"></path><path d="M861.113 548.454c-4.188-1.561-8.626-2.664-11.467-6.45" fill="#C6B198" p-id="1857"></path><path d="M500.954 26.631c110.38 0 213.857 15.788 267.798 121.838 48.418 118.868 31.2 247.047 38.586 372.676 6.342 107.87 20.398 232.495-29.645 332.458-52.64 105.17-184.19 131.624-292.571 127.75-85.131-3.047-187.968-30.82-236.012-108.598-56.37-91.246-29.681-226.924-25.59-328.453 4.85-120.27-32.573-240.902 6.935-358.587 40.987-122.08 151.528-149.67 270.499-159.084" fill="#6AD7E5" p-id="1858"></path><path d="M520.437 174.813c19.818 115.206 208.132 84.745 181.083-31.446-24.25-104.192-187.668-75.351-181.083 31.446M295.404 193.446c25.686 100.298 186.265 74.619 180.215-25.99-7.256-120.493-204.773-97.243-180.215 25.99M543.157 313.057c0.088 14.978 3.403 31.793 0.572 47.727-3.827 7.227-11.324 7.991-17.79 10.912-8.942-1.403-16.459-7.275-20.045-15.638-2.294-18.187 0.856-35.797 1.436-53.99l35.827 10.989z" fill="#FFFFFF" p-id="1859"></path><path d="M312.578 177.088a29.37 27.116 90 1 0 54.232 0 29.37 27.116 90 1 0-54.232 0z" p-id="1860"></path><path d="M345.635 183.717a7.464 6.393 90 1 0 12.785 0 7.464 6.393 90 1 0-12.785 0z" fill="#FFFFFF" p-id="1861"></path><path d="M540.224 169.774a29.37 26.664 90 1 0 53.328 0 29.37 26.664 90 1 0-53.328 0z" p-id="1862"></path><path d="M572.73 176.402a7.464 6.287 90 1 0 12.574 0 7.464 6.287 90 1 0-12.573 0zM465.67 311.426c-11.831 28.672 6.597 86.007 38.698 43.717-2.295-18.187 0.857-35.796 1.435-53.99l-40.134 10.273z" fill="#FFFFFF" p-id="1863"></path><path d="M469.718 256.208c-22.05 1.88-40.075 28.098-28.61 48.84 15.183 27.472 49.072-2.43 70.179 0.371 24.294 0.497 44.195 25.686 63.705 4.553 21.7-23.504-9.34-46.396-33.603-56.63l-71.671 2.866z" fill="#F6D2A2" p-id="1864"></path><path d="M466.942 255.06c-1.633-38.2 71.203-42.977 79.803-11 8.58 31.9-76.217 39.31-79.803 11-2.86-22.607 0 0 0 0z" p-id="1865"></path></svg>