<?xml version="1.0" standalone="no"?><!DOCTYPE svg PUBLIC "-//W3C//DTD SVG 1.1//EN" "http://www.w3.org/Graphics/SVG/1.1/DTD/svg11.dtd"><svg t="1583721967419" class="icon" viewBox="0 0 1129 1024" version="1.1" xmlns="http://www.w3.org/2000/svg" p-id="1440" xmlns:xlink="http://www.w3.org/1999/xlink" width="70.5625" height="64"><defs><style type="text/css"></style></defs><path d="M307.67365085 287.10388303a22.85529585 22.85529585 0 0 1-11.42764922-42.7394037L557.71059299 93.2909698a22.85529585 22.85529585 0 0 1 22.85529584 39.53966367L319.10129876 283.44703637a22.85529585 22.85529585 0 0 1-11.42764791 3.65684666zM262.64871652 667.41601486a22.85529585 22.85529585 0 0 1-22.85529585-22.85529584V344.9277839a22.85529585 22.85529585 0 0 1 45.71059169 0V644.56071902a22.85529585 22.85529585 0 0 1-22.85529584 22.85529584zM570.0524529 891.85502649a22.85529585 22.85529585 0 0 1-11.42764792-2.9711893l-269.46394466-155.64456817a22.85529585 22.85529585 0 0 1 22.85529585-39.53966239L580.56588883 849.11562149a22.85529585 22.85529585 0 0 1 8.2279066 31.31175578 22.85529585 22.85529585 0 0 1-18.74134253 11.42764922zM649.13177766 891.85502649a22.85529585 22.85529585 0 0 1-11.42764792-42.739405l262.15025003-151.30206154a22.85529585 22.85529585 0 0 1 31.31175577 8.2279066 22.85529585 22.85529585 0 0 1-8.45645992 31.31175576l-263.29301405 151.53061488a22.85529585 22.85529585 0 0 1-10.28488391 2.9711893zM955.1641967 658.27389626a22.85529585 22.85529585 0 0 1-22.85529585-22.85529584V355.89832518a22.85529585 22.85529585 0 0 1 45.710593 0V635.41860042a22.85529585 22.85529585 0 0 1-22.85529715 22.85529584zM920.19559298 294.64613098a22.85529585 22.85529585 0 0 1-11.42764793-3.19974133l-272.20657932-157.24443883a22.85529585 22.85529585 0 1 1 22.85529584-39.53966239l272.20658063 157.24443883a22.85529585 22.85529585 0 0 1-11.42764922 42.73940372z" fill="#0165C2" p-id="1441"></path><path d="M262.64871652 367.78307974a68.56588883 68.56588883 0 1 1 68.56588883-68.56588883 68.56588883 68.56588883 0 0 1-68.56588883 68.56588883z m0-89.82131531a22.85529585 22.85529585 0 1 0 22.85529584 22.85529714 22.85529585 22.85529585 0 0 0-22.85529584-22.85529714zM608.90645661 159.79988262a68.56588883 68.56588883 0 1 1 68.56588883-68.56588883 68.56588883 68.56588883 0 0 1-68.56588883 68.56588883z m0-90.04986733a22.85529585 22.85529585 0 1 0 22.85529585 22.85529585 22.85529585 22.85529585 0 0 0-22.85529585-22.85529585zM955.1641967 367.78307974a68.56588883 68.56588883 0 1 1 68.56588884-68.56588883 68.56588883 68.56588883 0 0 1-68.56588884 68.56588883z m0-89.82131531a22.85529585 22.85529585 0 1 0 22.85529715 22.85529714 22.85529585 22.85529585 0 0 0-22.85529715-22.85529714zM955.1641967 757.23733017a68.56588883 68.56588883 0 1 1 68.56588884-68.56588883 68.56588883 68.56588883 0 0 1-68.56588884 68.56588883z m0-89.82131531a22.85529585 22.85529585 0 1 0 22.85529715 22.85529714 22.85529585 22.85529585 0 0 0-22.85529715-22.85529714zM608.90645661 959.27815001a68.56588883 68.56588883 0 1 1 68.56588883-68.56588884 68.56588883 68.56588883 0 0 1-68.56588883 68.56588884z m0-89.82131403a22.85529585 22.85529585 0 1 0 22.85529585 22.85529585 22.85529585 22.85529585 0 0 0-22.85529585-22.85529585zM262.64871652 757.23733017a68.56588883 68.56588883 0 1 1 68.56588883-68.56588883 68.56588883 68.56588883 0 0 1-68.56588883 68.56588883z m0-89.82131531a22.85529585 22.85529585 0 1 0 22.85529584 22.85529714 22.85529585 22.85529585 0 0 0-22.85529584-22.85529714zM608.90645661 559.53901697a68.56588883 68.56588883 0 1 1 68.56588883-68.56589013 68.56588883 68.56588883 0 0 1-68.56588883 68.56589013z m0-90.04986865a22.85529585 22.85529585 0 1 0 22.85529585 22.85529714 22.85529585 22.85529585 0 0 0-22.85529585-22.85529714z" fill="#0165C2" p-id="1442"></path><path d="M608.90645661 469.48914832a22.85529585 22.85529585 0 0 1-12.79896654-3.88539997 22.85529585 22.85529585 0 0 1-10.0563293-18.96989587V136.94458678a22.85529585 22.85529585 0 1 1 45.71059169 0v275.86342728l274.26355662-112.2195058a22.85529585 22.85529585 0 0 1 17.37002521 42.51085167l-305.80386442 124.78991773a22.85529585 22.85529585 0 0 1-8.68501326 1.59987066zM608.90645661 869.45683598a22.85529585 22.85529585 0 0 1-22.85529584-22.85529713V536.68371983a22.85529585 22.85529585 0 0 1 31.76886112-21.02687186l301.23280707 127.07544706a22.85529585 22.85529585 0 0 1-18.51279052 42.05374504l-269.46394465-114.27648182v276.0919806a22.85529585 22.85529585 0 0 1-22.16963718 22.85529713zM301.73127356 690.04275868a22.85529585 22.85529585 0 0 1-18.96989587-10.05633058 22.85529585 22.85529585 0 0 1 6.17092931-30.85465044l233.58112894-156.33022684-232.89547027-150.84495621a22.85529585 22.85529585 0 1 1 24.91227315-38.39689707l261.92169671 169.81485207a22.85529585 22.85529585 0 0 1 10.2848839 18.96989585 22.85529585 22.85529585 0 0 1-10.05633059 19.19844919l-262.15025002 174.61446405a22.85529585 22.85529585 0 0 1-12.79896526 3.88539998z" fill="#0165C2" p-id="1443"></path></svg>