<?xml version="1.0" standalone="no"?><!DOCTYPE svg PUBLIC "-//W3C//DTD SVG 1.1//EN" "http://www.w3.org/Graphics/SVG/1.1/DTD/svg11.dtd"><svg t="1603095856524" class="icon" viewBox="0 0 1024 1024" version="1.1" xmlns="http://www.w3.org/2000/svg" p-id="1263" width="128" height="128" xmlns:xlink="http://www.w3.org/1999/xlink"><defs><style type="text/css"></style></defs><path d="M1022.976 605.696c-7.68-92.16-79.872-202.752-197.632-227.328-1.024 0-2.048-0.512-3.072-0.512-3.072-70.144-36.864-131.072-97.28-175.104-91.136-66.048-230.4-79.872-338.432-33.792-88.576 38.4-145.92 110.08-163.84 204.8-0.512 1.536-3.072 3.584-3.072 3.584-16.896 5.12-18.432 31.744-55.296 41.472-21.504 5.632-46.08 14.848-69.12 29.696C15.36 504.32-16.384 585.728 8.192 672.768c29.184 101.376 130.56 183.808 236.032 192 5.12 0.512 11.264 0.512 17.408 0.512 63.488 0 163.84-26.624 232.448-173.056 98.816-175.616 214.016-264.704 316.416-243.712 80.384 16.384 134.144 95.744 139.776 163.328 2.56 31.744-2.56 88.576-69.12 113.664-24.576 9.216-55.296 13.824-90.624 12.8l-2.048 71.68c45.056 1.536 85.504-4.608 119.296-17.408 79.36-30.72 122.88-100.352 115.2-186.88z m-593.92 53.76l-1.024 2.048c-43.008 91.648-104.448 137.216-177.664 131.584-74.752-5.632-150.016-67.072-171.008-139.776-11.264-40.448-10.752-98.304 57.344-145.92 24.064-14.848 51.2-22.016 70.656-25.088C221.696 480.256 292.352 399.36 293.376 394.24c3.584-23.552 12.8-60.928 40.448-96.768C358.4 265.728 389.12 246.784 416.256 235.008c84.992-36.352 193.536-25.6 264.704 25.6 30.208 21.504 63.488 58.368 67.584 115.712-85.504 11.264-202.752 73.728-319.488 283.136z" fill="#07679C" p-id="1264"></path><path d="M841.728 672.768c-59.392 0-107.52 47.104-107.52 104.448 0 57.856 48.128 104.448 107.52 104.448s107.52-47.104 107.52-104.448c0-57.856-48.128-104.448-107.52-104.448zM211.456 313.856c-59.392 0-107.52 47.104-107.52 104.448 0 57.856 48.128 104.448 107.52 104.448s107.52-47.104 107.52-104.448-48.128-104.448-107.52-104.448z" fill="#0CA8E3" p-id="1265"></path></svg>